Simulation
nRows=20
nColumns=15
endheader
time  TH_x TH_y TH_z SC_y  SC_z  SC_x  AC_y  AC_z  AC_x  GH_y  GH_z  GH_yy  EL_x  PS_y
5.745  0.000000  0.000000  0.000000  -41.80099777637555  4.522656165423312  -0.5597794887247466  58.479312610818134  11.271951701322205  13.54006668692602  13.951486308739844  76.34044975002978  -26.625107121502133  18.589945570657296  120.000000
5.80245  0.000000  0.000000  0.000000  -41.19856797398138  3.9291607556284567  -1.8820707230267917  58.2523839106871  10.726705163040627  13.590627035087893  13.671671461522136  74.12194052420354  -26.270015085027183  18.88510371223592  120.000000
5.8599  0.000000  0.000000  0.000000  -40.51270862652507  3.227780041471776  -3.6633232897313053  57.87873455875259  10.24864231909082  13.789334499836121  13.31254469371495  71.26863885723782  -25.667595944140707  19.281134480642336  120.000000
5.91735  0.000000  0.000000  0.000000  -39.79253809115466  2.4696156621850323  -5.816132681460643  57.318717432650416  9.897361064447313  14.126292116043684  12.87235734101008  67.81555967531934  -24.838745640774597  19.687905456260648  120.000000
5.9748  0.000000  0.000000  0.000000  -39.06549734051756  1.7154786174821337  -8.23145219083938  56.55552236469061  9.735954753647263  14.578698692201376  12.367833515806327  63.81857699571999  -23.80884000794143  19.997028017206297  120.000000
6.03225  0.000000  0.000000  0.000000  -38.33839986779518  1.0238952738021618  -10.788644233471075  55.60586477299634  9.81788429735123  15.112422292939701  11.840387327058977  59.353723737773  -22.61654954997899  20.11498436306509  120.000000
6.089700000000001  0.000000  0.000000  0.000000  -37.616313053321655  0.43740745030624695  -13.366218753730953  54.50946363429887  10.176185518506216  15.690183066009983  11.349461486701616  54.52172189474027  -21.317486338632335  19.986039040191073  120.000000
6.14715  0.000000  0.000000  0.000000  -36.9208900483519  -0.023613963808982452  -15.852413130640908  53.32544337114248  10.816032693569534  16.279298405465383  10.977068044799076  49.45314272254174  -19.985570001061234  19.606695022534907  120.000000
6.2046  0.000000  0.000000  0.000000  -36.29297975229787  -0.361314188429417  -18.152160147775188  52.13051619735682  11.712085356140713  16.854569987846855  10.83765772601677  44.305129446160734  -18.71924832803438  19.01812482545905  120.000000
6.26205  0.000000  0.000000  0.000000  -35.785960837290915  -0.594874447971879  -20.187695176173175  50.995285793722815  12.810825113381112  17.40244748724404  11.068695857423322  39.246307664991605  -17.639631520009022  18.283798927541348  120.000000
6.3195  0.000000  0.000000  0.000000  -35.451919687715304  -0.7431947491480715  -21.903705897761622  49.97048012173717  14.03743462209478  17.913268395061596  11.814444714941196  34.433518834543634  -16.880544261593634  17.480408039303956  120.000000
6.37695  0.000000  0.000000  0.000000  -35.31335068267764  -0.8174202906456416  -23.275794867711326  49.09497529490058  15.307991028807278  18.36334148870321  13.206784253803002  29.989046965958988  -16.573121127170772  16.690453905679217  120.000000
6.4344  0.000000  0.000000  0.000000  -35.35309122371542  -0.8329488043239309  -24.301534388783665  48.3917121749328  16.54255422272255  18.726289457123183  15.342018866487301  25.986822586490128  -16.824828040717644  15.99710264520808  120.000000
6.49185  0.000000  0.000000  0.000000  -35.52356794521811  -0.8110113132837707  -24.988124381617627  47.864307656515805  17.677577528833922  18.98600824573676  18.258291522997062  22.457805516384433  -17.70181969854238  15.474040537632646  120.000000
6.549300000000001  0.000000  0.000000  0.000000  -35.7684265531703  -0.7674423400865633  -25.353418034621182  47.50708380743538  18.67198797797644  19.129229883297796  21.921546748644197  19.405429515000744  -19.22162000645869  15.169636836139187  120.000000
6.60675  0.000000  0.000000  0.000000  -36.043069381317665  -0.7116289590342589  -25.42601163108973  47.30361608666339  19.50121871079707  19.14917609464782  26.220876551966263  16.811842332422522  -21.34659326196179  15.098341521888537  120.000000
6.6642  0.000000  0.000000  0.000000  -36.32317196705141  -0.649469081871637  -25.242211115724054  47.227468468262146  20.15163069462485  19.049633033092388  30.979059218106237  14.642514250139614  -23.98474583969595  15.243946499829985  120.000000
6.72165  0.000000  0.000000  0.000000  -36.60302919094158  -0.5828706497696409  -24.844456173900248  47.24938362846939  20.618367184711758  18.841817346908787  35.972632768226546  12.850960921718832  -26.993950391236964  15.569235696417698  120.000000
6.7791  0.000000  0.000000  0.000000  -36.8820349054394  -0.5120642950668026  -24.278737435860705  47.33991407539698  20.901061290300863  18.543354210128093  40.95042798100861  11.376804346477059  -30.182528834096907  16.01775176124498  120.000000
6.83655  0.000000  0.000000  0.000000  -37.15597643283274  -0.43907776860649017  -23.589889540861236  47.47548680228392  21.00401486892198  18.173735451402596  45.67376319818984  10.15171148424125  -33.341878905602876  16.5134419645725  120.000000
